<mxfile host="Electron" modified="2025-04-29T07:50:49.956Z" agent="Mozilla/5.0 (Windows NT 10.0; Win64; x64) AppleWebKit/537.36 (KHTML, like Gecko) draw.io/22.1.18 Chrome/120.0.6099.199 Electron/28.1.2 Safari/537.36" etag="jIGVhhbx1adsMPL5OW9y" version="22.1.18" type="device">
  <diagram name="第 1 页" id="KdRjreE3MOIQbmugA6AL">
    <mxGraphModel dx="1526" dy="896" grid="1" gridSize="10" guides="1" tooltips="1" connect="1" arrows="1" fold="1" page="1" pageScale="1" pageWidth="20000" pageHeight="20000" math="0" shadow="0">
      <root>
        <mxCell id="0" />
        <mxCell id="1" parent="0" />
        <mxCell id="RObKxQkiu_mTfadBc8yZ-38" value="" style="rounded=1;whiteSpace=wrap;html=1;hachureGap=4;fontFamily=Architects Daughter;fontSource=https%3A%2F%2Ffonts.googleapis.com%2Fcss%3Ffamily%3DArchitects%2BDaughter;fontSize=20;" parent="1" vertex="1">
          <mxGeometry x="1230" y="507.5" width="240" height="120" as="geometry" />
        </mxCell>
        <mxCell id="RObKxQkiu_mTfadBc8yZ-24" style="edgeStyle=orthogonalEdgeStyle;rounded=0;sketch=1;hachureGap=4;jiggle=2;curveFitting=1;orthogonalLoop=1;jettySize=auto;html=1;entryX=0.5;entryY=0;entryDx=0;entryDy=0;fontFamily=Architects Daughter;fontSource=https%3A%2F%2Ffonts.googleapis.com%2Fcss%3Ffamily%3DArchitects%2BDaughter;fontSize=16;" parent="1" source="RObKxQkiu_mTfadBc8yZ-1" target="RObKxQkiu_mTfadBc8yZ-3" edge="1">
          <mxGeometry relative="1" as="geometry" />
        </mxCell>
        <mxCell id="RObKxQkiu_mTfadBc8yZ-1" value="&lt;font face=&quot;Georgia&quot;&gt;Cserver&lt;/font&gt;" style="rounded=0;whiteSpace=wrap;html=1;sketch=1;hachureGap=4;jiggle=2;curveFitting=1;fontFamily=Architects Daughter;fontSource=https%3A%2F%2Ffonts.googleapis.com%2Fcss%3Ffamily%3DArchitects%2BDaughter;fontSize=20;" parent="1" vertex="1">
          <mxGeometry x="505" y="180" width="210" height="100" as="geometry" />
        </mxCell>
        <mxCell id="RObKxQkiu_mTfadBc8yZ-3" value="&lt;font face=&quot;Georgia&quot; style=&quot;font-size: 14px;&quot;&gt;Acceptor&lt;/font&gt;" style="ellipse;whiteSpace=wrap;html=1;aspect=fixed;hachureGap=4;fontFamily=Architects Daughter;fontSource=https%3A%2F%2Ffonts.googleapis.com%2Fcss%3Ffamily%3DArchitects%2BDaughter;fontSize=20;" parent="1" vertex="1">
          <mxGeometry x="575" y="370" width="70" height="70" as="geometry" />
        </mxCell>
        <mxCell id="RObKxQkiu_mTfadBc8yZ-6" value="" style="endArrow=none;html=1;rounded=0;hachureGap=4;fontFamily=Architects Daughter;fontSource=https%3A%2F%2Ffonts.googleapis.com%2Fcss%3Ffamily%3DArchitects%2BDaughter;fontSize=16;" parent="1" edge="1">
          <mxGeometry width="50" height="50" relative="1" as="geometry">
            <mxPoint x="610" y="430" as="sourcePoint" />
            <mxPoint x="610" y="530" as="targetPoint" />
          </mxGeometry>
        </mxCell>
        <mxCell id="RObKxQkiu_mTfadBc8yZ-7" value="&lt;font style=&quot;font-size: 14px;&quot;&gt;监听连接&lt;/font&gt;" style="edgeLabel;html=1;align=center;verticalAlign=middle;resizable=0;points=[];fontSize=20;fontFamily=Architects Daughter;" parent="RObKxQkiu_mTfadBc8yZ-6" vertex="1" connectable="0">
          <mxGeometry x="-0.0602" y="3" relative="1" as="geometry">
            <mxPoint as="offset" />
          </mxGeometry>
        </mxCell>
        <mxCell id="RObKxQkiu_mTfadBc8yZ-29" value="tart" style="edgeStyle=orthogonalEdgeStyle;rounded=0;hachureGap=4;orthogonalLoop=1;jettySize=auto;html=1;fontFamily=Architects Daughter;fontSource=https%3A%2F%2Ffonts.googleapis.com%2Fcss%3Ffamily%3DArchitects%2BDaughter;fontSize=16;" parent="1" source="RObKxQkiu_mTfadBc8yZ-9" edge="1">
          <mxGeometry relative="1" as="geometry">
            <mxPoint x="920" y="575" as="targetPoint" />
          </mxGeometry>
        </mxCell>
        <mxCell id="RObKxQkiu_mTfadBc8yZ-30" value="&lt;font face=&quot;Georgia&quot; style=&quot;font-size: 18px;&quot;&gt;Start&lt;/font&gt;" style="edgeLabel;html=1;align=center;verticalAlign=middle;resizable=0;points=[];fontSize=20;fontFamily=Architects Daughter;" parent="RObKxQkiu_mTfadBc8yZ-29" vertex="1" connectable="0">
          <mxGeometry x="0.0023" y="-2" relative="1" as="geometry">
            <mxPoint x="-1" as="offset" />
          </mxGeometry>
        </mxCell>
        <mxCell id="RObKxQkiu_mTfadBc8yZ-9" value="&lt;font face=&quot;Georgia&quot; style=&quot;font-size: 14px;&quot;&gt;获取一个&lt;br&gt;httpConnection&lt;/font&gt;" style="rounded=0;whiteSpace=wrap;html=1;sketch=1;hachureGap=4;jiggle=2;curveFitting=1;fontFamily=Architects Daughter;fontSource=https%3A%2F%2Ffonts.googleapis.com%2Fcss%3Ffamily%3DArchitects%2BDaughter;fontSize=20;" parent="1" vertex="1">
          <mxGeometry x="530" y="530" width="170" height="90" as="geometry" />
        </mxCell>
        <mxCell id="RObKxQkiu_mTfadBc8yZ-14" style="edgeStyle=orthogonalEdgeStyle;rounded=0;sketch=1;hachureGap=4;jiggle=2;curveFitting=1;orthogonalLoop=1;jettySize=auto;html=1;fontFamily=Architects Daughter;fontSource=https%3A%2F%2Ffonts.googleapis.com%2Fcss%3Ffamily%3DArchitects%2BDaughter;fontSize=16;" parent="1" edge="1">
          <mxGeometry relative="1" as="geometry">
            <mxPoint x="1070" y="520" as="targetPoint" />
            <mxPoint x="1310" y="250" as="sourcePoint" />
            <Array as="points">
              <mxPoint x="1071" y="250" />
            </Array>
          </mxGeometry>
        </mxCell>
        <mxCell id="RObKxQkiu_mTfadBc8yZ-15" value="&lt;font style=&quot;font-size: 18px;&quot; face=&quot;Georgia&quot;&gt;HandleGet&lt;/font&gt;" style="edgeLabel;html=1;align=center;verticalAlign=middle;resizable=0;points=[];fontSize=20;fontFamily=Architects Daughter;" parent="RObKxQkiu_mTfadBc8yZ-14" vertex="1" connectable="0">
          <mxGeometry x="0.216" y="-2" relative="1" as="geometry">
            <mxPoint x="11" y="10" as="offset" />
          </mxGeometry>
        </mxCell>
        <mxCell id="RObKxQkiu_mTfadBc8yZ-16" style="edgeStyle=orthogonalEdgeStyle;rounded=0;hachureGap=4;orthogonalLoop=1;jettySize=auto;html=1;fontFamily=Architects Daughter;fontSource=https%3A%2F%2Ffonts.googleapis.com%2Fcss%3Ffamily%3DArchitects%2BDaughter;fontSize=16;" parent="1" source="RObKxQkiu_mTfadBc8yZ-10" edge="1">
          <mxGeometry relative="1" as="geometry">
            <mxPoint x="990" y="520" as="targetPoint" />
          </mxGeometry>
        </mxCell>
        <mxCell id="RObKxQkiu_mTfadBc8yZ-17" value="&lt;font style=&quot;font-size: 18px;&quot; face=&quot;Georgia&quot;&gt;HandlePost&lt;/font&gt;" style="edgeLabel;html=1;align=center;verticalAlign=middle;resizable=0;points=[];fontSize=20;fontFamily=Architects Daughter;" parent="RObKxQkiu_mTfadBc8yZ-16" vertex="1" connectable="0">
          <mxGeometry x="0.2896" y="-3" relative="1" as="geometry">
            <mxPoint as="offset" />
          </mxGeometry>
        </mxCell>
        <mxCell id="RObKxQkiu_mTfadBc8yZ-10" value="&lt;font style=&quot;font-size: 36px;&quot; face=&quot;Georgia&quot;&gt;LogicSystem&lt;/font&gt;" style="rounded=0;whiteSpace=wrap;html=1;sketch=1;hachureGap=4;jiggle=2;curveFitting=1;fontFamily=Architects Daughter;fontSource=https%3A%2F%2Ffonts.googleapis.com%2Fcss%3Ffamily%3DArchitects%2BDaughter;fontSize=20;" parent="1" vertex="1">
          <mxGeometry x="1191.26" y="170" width="290" height="180" as="geometry" />
        </mxCell>
        <mxCell id="RObKxQkiu_mTfadBc8yZ-27" style="edgeStyle=orthogonalEdgeStyle;rounded=0;sketch=1;hachureGap=4;jiggle=2;curveFitting=1;orthogonalLoop=1;jettySize=auto;html=1;entryX=0;entryY=0.5;entryDx=0;entryDy=0;fontFamily=Architects Daughter;fontSource=https%3A%2F%2Ffonts.googleapis.com%2Fcss%3Ffamily%3DArchitects%2BDaughter;fontSize=16;" parent="1" source="RObKxQkiu_mTfadBc8yZ-21" target="RObKxQkiu_mTfadBc8yZ-9" edge="1">
          <mxGeometry relative="1" as="geometry" />
        </mxCell>
        <mxCell id="RObKxQkiu_mTfadBc8yZ-28" value="&lt;font style=&quot;font-size: 14px;&quot;&gt;定时器&lt;/font&gt;" style="edgeLabel;html=1;align=center;verticalAlign=middle;resizable=0;points=[];fontSize=20;fontFamily=Architects Daughter;" parent="RObKxQkiu_mTfadBc8yZ-27" vertex="1" connectable="0">
          <mxGeometry x="-0.2768" y="4" relative="1" as="geometry">
            <mxPoint as="offset" />
          </mxGeometry>
        </mxCell>
        <mxCell id="RObKxQkiu_mTfadBc8yZ-21" value="&lt;font style=&quot;font-size: 18px;&quot; face=&quot;Georgia&quot;&gt;deadline_&lt;/font&gt;" style="rounded=0;whiteSpace=wrap;html=1;sketch=1;hachureGap=4;jiggle=2;curveFitting=1;fontFamily=Architects Daughter;fontSource=https%3A%2F%2Ffonts.googleapis.com%2Fcss%3Ffamily%3DArchitects%2BDaughter;fontSize=20;" parent="1" vertex="1">
          <mxGeometry x="440" y="710" width="120" height="30" as="geometry" />
        </mxCell>
        <mxCell id="RObKxQkiu_mTfadBc8yZ-31" value="&lt;font face=&quot;Georgia&quot; style=&quot;font-size: 14px;&quot;&gt;从连接读取客户端发来的http请求Get/Post&lt;/font&gt;" style="rounded=0;whiteSpace=wrap;html=1;sketch=1;hachureGap=4;jiggle=2;curveFitting=1;fontFamily=Architects Daughter;fontSource=https%3A%2F%2Ffonts.googleapis.com%2Fcss%3Ffamily%3DArchitects%2BDaughter;fontSize=20;" parent="1" vertex="1">
          <mxGeometry x="950" y="532.5" width="160" height="85" as="geometry" />
        </mxCell>
        <mxCell id="RObKxQkiu_mTfadBc8yZ-32" value="" style="endArrow=classic;html=1;rounded=0;sketch=1;hachureGap=4;jiggle=2;curveFitting=1;fontFamily=Architects Daughter;fontSource=https%3A%2F%2Ffonts.googleapis.com%2Fcss%3Ffamily%3DArchitects%2BDaughter;fontSize=16;exitX=0.041;exitY=-0.007;exitDx=0;exitDy=0;exitPerimeter=0;" parent="1" edge="1">
          <mxGeometry width="50" height="50" relative="1" as="geometry">
            <mxPoint x="530" y="529.9999999999999" as="sourcePoint" />
            <mxPoint x="430" y="390" as="targetPoint" />
          </mxGeometry>
        </mxCell>
        <mxCell id="RObKxQkiu_mTfadBc8yZ-33" value="&lt;font face=&quot;Georgia&quot; style=&quot;font-size: 14px;&quot;&gt;WriteResponse(socket)&lt;/font&gt;" style="edgeLabel;html=1;align=center;verticalAlign=middle;resizable=0;points=[];fontSize=20;fontFamily=Architects Daughter;" parent="RObKxQkiu_mTfadBc8yZ-32" vertex="1" connectable="0">
          <mxGeometry x="0.05" y="1" relative="1" as="geometry">
            <mxPoint x="-1" as="offset" />
          </mxGeometry>
        </mxCell>
        <mxCell id="wuN3iqz_Swb8vweMjahp-2" value="&lt;font style=&quot;font-size: 14px;&quot; face=&quot;Georgia&quot;&gt;shutdown_send&lt;/font&gt;" style="edgeLabel;html=1;align=center;verticalAlign=middle;resizable=0;points=[];fontSize=20;fontFamily=Architects Daughter;" parent="RObKxQkiu_mTfadBc8yZ-32" vertex="1" connectable="0">
          <mxGeometry x="-0.65" y="-4" relative="1" as="geometry">
            <mxPoint y="1" as="offset" />
          </mxGeometry>
        </mxCell>
        <mxCell id="RObKxQkiu_mTfadBc8yZ-34" value="&lt;font face=&quot;Georgia&quot; style=&quot;font-size: 24px;&quot;&gt;Client&lt;/font&gt;" style="text;html=1;align=center;verticalAlign=middle;resizable=0;points=[];autosize=1;strokeColor=none;fillColor=none;fontSize=20;fontFamily=Architects Daughter;" parent="1" vertex="1">
          <mxGeometry x="350" y="340" width="90" height="40" as="geometry" />
        </mxCell>
        <mxCell id="RObKxQkiu_mTfadBc8yZ-36" value="&lt;font face=&quot;Georgia&quot;&gt;RegPost&lt;/font&gt;" style="text;html=1;align=center;verticalAlign=middle;resizable=0;points=[];autosize=1;strokeColor=none;fillColor=none;fontSize=20;fontFamily=Architects Daughter;" parent="1" vertex="1">
          <mxGeometry x="1296.26" y="470" width="100" height="40" as="geometry" />
        </mxCell>
        <mxCell id="RObKxQkiu_mTfadBc8yZ-45" style="edgeStyle=orthogonalEdgeStyle;rounded=0;sketch=1;hachureGap=4;jiggle=2;curveFitting=1;orthogonalLoop=1;jettySize=auto;html=1;fontFamily=Architects Daughter;fontSource=https%3A%2F%2Ffonts.googleapis.com%2Fcss%3Ffamily%3DArchitects%2BDaughter;fontSize=16;" parent="1" source="RObKxQkiu_mTfadBc8yZ-35" edge="1">
          <mxGeometry relative="1" as="geometry">
            <mxPoint x="1160" y="810" as="targetPoint" />
          </mxGeometry>
        </mxCell>
        <mxCell id="RObKxQkiu_mTfadBc8yZ-35" value="&lt;font face=&quot;Georgia&quot; style=&quot;font-size: 12px;&quot;&gt;get_verify_code&lt;/font&gt;" style="rounded=0;whiteSpace=wrap;html=1;hachureGap=4;fontFamily=Architects Daughter;fontSource=https%3A%2F%2Ffonts.googleapis.com%2Fcss%3Ffamily%3DArchitects%2BDaughter;fontSize=20;" parent="1" vertex="1">
          <mxGeometry x="1240" y="510" width="90" height="60" as="geometry" />
        </mxCell>
        <mxCell id="RObKxQkiu_mTfadBc8yZ-39" value="&lt;font face=&quot;Georgia&quot; style=&quot;font-size: 12px;&quot;&gt;user_register&lt;/font&gt;" style="rounded=0;whiteSpace=wrap;html=1;hachureGap=4;fontFamily=Architects Daughter;fontSource=https%3A%2F%2Ffonts.googleapis.com%2Fcss%3Ffamily%3DArchitects%2BDaughter;fontSize=20;" parent="1" vertex="1">
          <mxGeometry x="1350" y="510" width="110" height="60" as="geometry" />
        </mxCell>
        <mxCell id="RObKxQkiu_mTfadBc8yZ-40" value="&lt;font face=&quot;Georgia&quot; style=&quot;font-size: 12px;&quot;&gt;reset_pwd&lt;/font&gt;" style="rounded=0;whiteSpace=wrap;html=1;hachureGap=4;fontFamily=Architects Daughter;fontSource=https%3A%2F%2Ffonts.googleapis.com%2Fcss%3Ffamily%3DArchitects%2BDaughter;fontSize=20;" parent="1" vertex="1">
          <mxGeometry x="1240" y="570" width="90" height="47.5" as="geometry" />
        </mxCell>
        <mxCell id="RObKxQkiu_mTfadBc8yZ-42" value="&lt;font face=&quot;Georgia&quot; style=&quot;font-size: 12px;&quot;&gt;user_login&lt;/font&gt;" style="rounded=0;whiteSpace=wrap;html=1;hachureGap=4;fontFamily=Architects Daughter;fontSource=https%3A%2F%2Ffonts.googleapis.com%2Fcss%3Ffamily%3DArchitects%2BDaughter;fontSize=20;" parent="1" vertex="1">
          <mxGeometry x="1350" y="570" width="110" height="47.5" as="geometry" />
        </mxCell>
        <mxCell id="RObKxQkiu_mTfadBc8yZ-44" value="" style="endArrow=classic;html=1;rounded=0;hachureGap=4;fontFamily=Architects Daughter;fontSource=https%3A%2F%2Ffonts.googleapis.com%2Fcss%3Ffamily%3DArchitects%2BDaughter;fontSize=16;entryX=0.474;entryY=0.15;entryDx=0;entryDy=0;entryPerimeter=0;exitX=0.521;exitY=1.056;exitDx=0;exitDy=0;exitPerimeter=0;" parent="1" source="RObKxQkiu_mTfadBc8yZ-10" target="RObKxQkiu_mTfadBc8yZ-36" edge="1">
          <mxGeometry width="50" height="50" relative="1" as="geometry">
            <mxPoint x="1000" y="530" as="sourcePoint" />
            <mxPoint x="1050" y="480" as="targetPoint" />
          </mxGeometry>
        </mxCell>
        <mxCell id="RObKxQkiu_mTfadBc8yZ-46" value="" style="rounded=0;whiteSpace=wrap;html=1;hachureGap=4;fontFamily=Architects Daughter;fontSource=https%3A%2F%2Ffonts.googleapis.com%2Fcss%3Ffamily%3DArchitects%2BDaughter;fontSize=20;" parent="1" vertex="1">
          <mxGeometry x="1032.52" y="815" width="263.74" height="70" as="geometry" />
        </mxCell>
        <mxCell id="RObKxQkiu_mTfadBc8yZ-64" style="edgeStyle=orthogonalEdgeStyle;rounded=0;sketch=1;hachureGap=4;jiggle=2;curveFitting=1;orthogonalLoop=1;jettySize=auto;html=1;entryX=0.5;entryY=0;entryDx=0;entryDy=0;fontFamily=Architects Daughter;fontSource=https%3A%2F%2Ffonts.googleapis.com%2Fcss%3Ffamily%3DArchitects%2BDaughter;fontSize=16;" parent="1" source="RObKxQkiu_mTfadBc8yZ-47" target="RObKxQkiu_mTfadBc8yZ-58" edge="1">
          <mxGeometry relative="1" as="geometry" />
        </mxCell>
        <mxCell id="RObKxQkiu_mTfadBc8yZ-47" value="&lt;font style=&quot;font-size: 14px;&quot;&gt;解析Json数据并验证数据有效性&lt;/font&gt;" style="text;html=1;align=center;verticalAlign=middle;resizable=0;points=[];autosize=1;strokeColor=none;fillColor=none;fontSize=20;fontFamily=Architects Daughter;" parent="1" vertex="1">
          <mxGeometry x="1054.3899999999999" y="830" width="220" height="40" as="geometry" />
        </mxCell>
        <mxCell id="RObKxQkiu_mTfadBc8yZ-48" value="&lt;font face=&quot;Georgia&quot;&gt;VerifyServer&lt;/font&gt;" style="rounded=0;whiteSpace=wrap;html=1;sketch=1;hachureGap=4;jiggle=2;curveFitting=1;fontFamily=Architects Daughter;fontSource=https%3A%2F%2Ffonts.googleapis.com%2Fcss%3Ffamily%3DArchitects%2BDaughter;fontSize=20;" parent="1" vertex="1">
          <mxGeometry x="420" y="1110" width="250" height="140" as="geometry" />
        </mxCell>
        <mxCell id="RObKxQkiu_mTfadBc8yZ-49" value="" style="ellipse;shape=cloud;whiteSpace=wrap;html=1;sketch=1;hachureGap=4;jiggle=2;curveFitting=1;fontFamily=Architects Daughter;fontSource=https%3A%2F%2Ffonts.googleapis.com%2Fcss%3Ffamily%3DArchitects%2BDaughter;fontSize=20;" parent="1" vertex="1">
          <mxGeometry x="750" y="1090" width="120" height="80" as="geometry" />
        </mxCell>
        <mxCell id="RObKxQkiu_mTfadBc8yZ-50" value="&lt;font face=&quot;Georgia&quot; style=&quot;font-size: 18px;&quot;&gt;VerifyGrpcClient&lt;/font&gt;" style="rounded=0;whiteSpace=wrap;html=1;hachureGap=4;fontFamily=Architects Daughter;fontSource=https%3A%2F%2Ffonts.googleapis.com%2Fcss%3Ffamily%3DArchitects%2BDaughter;fontSize=20;" parent="1" vertex="1">
          <mxGeometry x="940" y="970" width="150" height="80" as="geometry" />
        </mxCell>
        <mxCell id="RObKxQkiu_mTfadBc8yZ-51" value="" style="endArrow=classic;html=1;rounded=0;sketch=1;hachureGap=4;jiggle=2;curveFitting=1;fontFamily=Architects Daughter;fontSource=https%3A%2F%2Ffonts.googleapis.com%2Fcss%3Ffamily%3DArchitects%2BDaughter;fontSize=16;exitX=0.104;exitY=1.133;exitDx=0;exitDy=0;exitPerimeter=0;entryX=1.031;entryY=0.667;entryDx=0;entryDy=0;entryPerimeter=0;" parent="1" source="RObKxQkiu_mTfadBc8yZ-50" target="RObKxQkiu_mTfadBc8yZ-48" edge="1">
          <mxGeometry width="50" height="50" relative="1" as="geometry">
            <mxPoint x="950" y="980" as="sourcePoint" />
            <mxPoint x="1000" y="930" as="targetPoint" />
          </mxGeometry>
        </mxCell>
        <mxCell id="RObKxQkiu_mTfadBc8yZ-52" value="&lt;font style=&quot;font-size: 14px;&quot; face=&quot;Georgia&quot;&gt;GetVerifyCode&lt;/font&gt;" style="edgeLabel;html=1;align=center;verticalAlign=middle;resizable=0;points=[];fontSize=20;fontFamily=Architects Daughter;" parent="RObKxQkiu_mTfadBc8yZ-51" vertex="1" connectable="0">
          <mxGeometry x="-0.0282" y="5" relative="1" as="geometry">
            <mxPoint x="-13" as="offset" />
          </mxGeometry>
        </mxCell>
        <mxCell id="RObKxQkiu_mTfadBc8yZ-56" value="" style="endArrow=classic;html=1;rounded=0;hachureGap=4;fontFamily=Architects Daughter;fontSource=https%3A%2F%2Ffonts.googleapis.com%2Fcss%3Ffamily%3DArchitects%2BDaughter;fontSize=16;exitX=1;exitY=1;exitDx=0;exitDy=0;entryX=0.548;entryY=1.122;entryDx=0;entryDy=0;entryPerimeter=0;" parent="1" source="RObKxQkiu_mTfadBc8yZ-48" target="RObKxQkiu_mTfadBc8yZ-58" edge="1">
          <mxGeometry width="50" height="50" relative="1" as="geometry">
            <mxPoint x="950" y="980" as="sourcePoint" />
            <mxPoint x="1180" y="1020" as="targetPoint" />
          </mxGeometry>
        </mxCell>
        <mxCell id="RObKxQkiu_mTfadBc8yZ-58" value="Rsp" style="rounded=0;whiteSpace=wrap;html=1;hachureGap=4;fontFamily=Architects Daughter;fontSource=https%3A%2F%2Ffonts.googleapis.com%2Fcss%3Ffamily%3DArchitects%2BDaughter;fontSize=20;" parent="1" vertex="1">
          <mxGeometry x="1210" y="970" width="70" height="60" as="geometry" />
        </mxCell>
        <mxCell id="RObKxQkiu_mTfadBc8yZ-59" style="edgeStyle=orthogonalEdgeStyle;rounded=0;hachureGap=4;orthogonalLoop=1;jettySize=auto;html=1;entryX=1.038;entryY=0.383;entryDx=0;entryDy=0;entryPerimeter=0;fontFamily=Architects Daughter;fontSource=https%3A%2F%2Ffonts.googleapis.com%2Fcss%3Ffamily%3DArchitects%2BDaughter;fontSize=16;" parent="1" source="RObKxQkiu_mTfadBc8yZ-58" target="RObKxQkiu_mTfadBc8yZ-50" edge="1">
          <mxGeometry relative="1" as="geometry" />
        </mxCell>
        <mxCell id="RObKxQkiu_mTfadBc8yZ-63" value="调用" style="edgeLabel;html=1;align=center;verticalAlign=middle;resizable=0;points=[];fontSize=20;fontFamily=Architects Daughter;" parent="RObKxQkiu_mTfadBc8yZ-59" vertex="1" connectable="0">
          <mxGeometry x="0.0444" y="-1" relative="1" as="geometry">
            <mxPoint x="1" y="-1" as="offset" />
          </mxGeometry>
        </mxCell>
        <mxCell id="RObKxQkiu_mTfadBc8yZ-65" value="" style="endArrow=classic;html=1;rounded=0;sketch=1;hachureGap=4;jiggle=2;curveFitting=1;fontFamily=Architects Daughter;fontSource=https%3A%2F%2Ffonts.googleapis.com%2Fcss%3Ffamily%3DArchitects%2BDaughter;fontSize=16;exitX=0.138;exitY=0.056;exitDx=0;exitDy=0;exitPerimeter=0;entryX=0.582;entryY=1.044;entryDx=0;entryDy=0;entryPerimeter=0;" parent="1" source="RObKxQkiu_mTfadBc8yZ-58" target="RObKxQkiu_mTfadBc8yZ-9" edge="1">
          <mxGeometry width="50" height="50" relative="1" as="geometry">
            <mxPoint x="950" y="880" as="sourcePoint" />
            <mxPoint x="1000" y="830" as="targetPoint" />
          </mxGeometry>
        </mxCell>
        <mxCell id="RObKxQkiu_mTfadBc8yZ-66" value="&lt;font face=&quot;Georgia&quot; style=&quot;font-size: 14px;&quot;&gt;写到 _response&lt;/font&gt;" style="edgeLabel;html=1;align=center;verticalAlign=middle;resizable=0;points=[];fontSize=20;fontFamily=Architects Daughter;" parent="RObKxQkiu_mTfadBc8yZ-65" vertex="1" connectable="0">
          <mxGeometry x="0.2062" y="1" relative="1" as="geometry">
            <mxPoint as="offset" />
          </mxGeometry>
        </mxCell>
      </root>
    </mxGraphModel>
  </diagram>
</mxfile>
